<?xml version="1.0" ?><!DOCTYPE svg  PUBLIC '-//W3C//DTD SVG 1.1//EN'  'http://www.w3.org/Graphics/SVG/1.1/DTD/svg11.dtd'><svg height="256px" style="shape-rendering:geometricPrecision; text-rendering:geometricPrecision; image-rendering:optimizeQuality; fill-rule:evenodd; clip-rule:evenodd" version="1.1" viewBox="0 0 906784 935304" width="248px" xml:space="preserve" xmlns="http://www.w3.org/2000/svg" xmlns:xlink="http://www.w3.org/1999/xlink"><defs><style type="text/css">
   <![CDATA[
    .str0 {stroke:#105286;stroke-width:14614}
    .str2 {stroke:white;stroke-width:14614}
    .str1 {stroke:#105286;stroke-width:14614;stroke-dasharray:29228.009221 14614.004610}
    .fil2 {fill:none}
    .fil4 {fill:#3FE4C0}
    .fil1 {fill:#C2C2C2}
    .fil0 {fill:#E6E6E6}
    .fil6 {fill:#FF576B}
    .fil5 {fill:#FFD027}
    .fil3 {fill:white}
   ]]>
  </style></defs><g id="Layer_x0020_1"><g id="_404523872"><path class="fil0" d="M124355 854203l46902 0c53644,0 53644,-81100 0,-81100l-127053 0c-53644,0 -53644,-81098 0,-81098l124470 0c53643,0 53647,-81100 0,-81100l-44701 0c-53645,0 -53645,-81098 0,-81098l222662 0 79207 0 120745 0c53645,0 53645,81098 0,81098l-22351 0c-53647,0 -53642,81100 0,81100l60944 0c53645,0 53645,81098 0,81098l-63526 0c-53645,0 -53645,81100 0,81100l19526 0c53647,0 53647,81098 0,81098l-115338 0 -79207 0 -222280 0c-53646,0 -53646,-81098 0,-81098z"/><path class="fil1" d="M367007 529805l417623 0c53645,0 53639,81100 0,81100l-41645 0c-56680,0 -61684,81098 6207,81098l117115 0c53644,0 53638,81102 0,81102l-168710 0c-53645,0 -53645,81098 0,81098l40824 0c53642,0 53640,81101 0,81101l-371414 0 -22377 -3c-53641,0 -53641,-81098 0,-81098l22377 0c53994,0 56246,-81100 0,-81100l-95515 0c-53641,0 -53643,-81098 0,-81098l69219 0c59400,1828 66428,-81100 0,-81100l-42288 0c-53646,0 -53646,-81098 0,-81098l68584 0 0 -2zm469917 324398l-240 0c-22303,0 -40549,18245 -40549,40548l0 4c0,22304 18246,40546 40549,40546l240 0c22303,0 40548,-18242 40548,-40546l0 -4c0,-22303 -18245,-40548 -40548,-40548z"/></g><path class="fil2 str0" d="M867399 165316l8687 8687m23679 -8687l-8688 8688m-14990 14990l-8688 8688m23678 -8688l8688 8688"/><path class="fil2 str0" d="M872391 369611c5797,-6357 15649,-6812 22006,-1014 6356,5796 6810,15648 1013,22005 -5796,6357 -15648,6812 -22005,1014 -6358,-5796 -6811,-15648 -1014,-22005z"/><path class="fil2 str0" d="M859168 633784l8687 8687m23679 -8687l-8688 8688m-14990 14990l-8688 8688m23678 -8688l8688 8688"/><g id="_404534144"><path class="fil2 str1" d="M787387 494530c1259,12138 1905,24456 1905,36926 0,195277 -158300,353576 -353576,353576 -195276,0 -353576,-158299 -353576,-353576 0,-103710 44651,-196990 115774,-261665m176840 -86674c19804,-3442 40174,-5236 60962,-5236 36247,0 71218,5454 104141,15586"/><g><path class="fil3" d="M582716 410979l116835 0 116834 0 0 -37139c0,-15871 5106,-79035 -46457,-103283l-46092 -21676 0 -22840 46092 -21675c51563,-24248 46457,-87413 46457,-103284l0 -37138 -116834 0 -116835 0 0 37138c0,15871 -5106,79036 46457,103284l43765 20581 0 25029 -43765 20581c-51563,24248 -46457,87412 -46457,103283l0 37139z"/><path class="fil4" d="M595764 397931l207573 0 0 -24091c0,-6346 246,-12551 2,-18924 -340,-8881 -1365,-17794 -3509,-26430 -5099,-20521 -15881,-36915 -35455,-46120l-53587 -25202 0 -39407 53588 -25199c19573,-9205 30355,-25599 35454,-46121 2144,-8635 3169,-17549 3509,-26430 244,-6374 -2,-12577 -2,-18924l0 -24091 -207573 0 0 24091c0,6347 -246,12550 -2,18925 340,8880 1365,17794 3510,26429 5098,20522 15880,36917 35453,46121l51261 24104 0 41598 -51260 24106c-19574,9205 -30356,25599 -35454,46120 -2145,8636 -3170,17549 -3509,26430 -245,6373 1,12578 1,18924l0 24091z"/><path class="fil2 str0" d="M816385 410980l0 -37139c0,-15871 5106,-79035 -46457,-103283l-46092 -21676 0 -22840 46092 -21675c51563,-24248 46457,-87413 46457,-103284l0 -37138m-233669 0l0 37138c0,15871 -5106,79036 46457,103284l43765 20581 0 25029 -43765 20581c-10549,4960 -18727,11551 -25060,19030"/><path class="fil3" d="M559588 7308l279926 0 0 28317c0,15576 -12743,28320 -28319,28320l-223289 0c-15576,0 -28318,-12744 -28318,-28320l0 -28317z"/><path class="fil2 str0" d="M559588 7308l279926 0 0 28317c0,15576 -12743,28320 -28319,28320l-223289 0c-15576,0 -28318,-12744 -28318,-28320l0 -28317z"/><path class="fil5" d="M788940 118911c-70284,47907 -103074,-27761 -178930,-4821 216,13343 2065,31671 12469,48105 12827,20262 30038,25314 47755,32436l27953 11237 41306 -15784c28812,-11011 49447,-25718 49447,-71173z"/><path class="fil5" d="M776459 410980l-152631 0c0,-67123 21261,-86777 74359,-108122 28336,10298 78272,17849 78272,108122z"/><path class="fil2 str0" d="M788940 118911c-70284,47907 -103074,-27761 -178930,-4821 216,13343 2065,31671 12469,48105 12827,20262 30038,25314 47755,32436l27953 11237 41306 -15784c28812,-11011 49447,-25718 49447,-71173z"/><path class="fil2 str0" d="M698187 205868l0 18936m0 22288l0 14267m0 20505l0 20994"/><path class="fil2 str0" d="M625578 381653c6051,-44266 28190,-60939 72609,-78795 28336,10298 78272,17849 78272,108122"/><path class="fil3" d="M559588 467615l279926 0 0 -28318c0,-15576 -12743,-28319 -28319,-28319l-223289 0c-15576,0 -28318,12743 -28318,28319l0 28318z"/><path class="fil2 str0" d="M668280 467615l171234 0 0 -28318c0,-15576 -12743,-28319 -28319,-28319l-112634 0"/><path class="fil5" d="M576822 451625l245457 0 0 -12328c0,-6782 -5547,-12329 -12328,-12329l-220801 0c-6781,0 -12328,5547 -12328,12329l0 12328z"/><path class="fil5" d="M576822 23298l245457 0 0 12327c0,6783 -5547,12330 -12328,12330l-220801 0c-6781,0 -12328,-5547 -12328,-12330l0 -12327z"/></g><g><path class="fil3" d="M472921 298087c16380,2592 32199,6867 47276,12644l40362 -45371c14395,8311 28788,16622 43182,24931l-19133 57705c12676,10302 24267,21890 34567,34570l57707 -19135c8310,14395 16621,28789 24931,43182l-45384 40374c5773,15075 10055,30886 12646,47263l59509 12275c0,16621 -1,33242 0,49862l-59499 12275c-2593,16380 -6868,32199 -12644,47275l45372 40362c-8310,14395 -16622,28788 -24931,43183l-57705 -19134c-10303,12676 -21891,24266 -34570,34567l19134 57707c-14394,8310 -28789,16621 -43182,24931l-40374 -45385c-15074,5773 -30886,10057 -47262,12647l-12276 59510c-16621,0 -33242,-1 -49862,0l-12275 -59500c-16379,-2592 -32198,-6868 -47275,-12643l-40362 45371c-14394,-8310 -28788,-16622 -43182,-24931l19133 -57705c-12676,-10303 -24267,-21890 -34566,-34570l-57708 19135c-8310,-14395 -16621,-28789 -24931,-43183l45384 -40372c-5772,-15075 -10055,-30886 -12646,-47263l-59509 -12277c0,-16620 1,-33242 0,-49862l59499 -12274c2593,-16381 6868,-32201 12644,-47276l-45372 -40362c8310,-14394 16622,-28787 24931,-43182l57704 19133c10304,-12678 21891,-24268 34570,-34569l-19133 -57704c14394,-8310 28789,-16620 43183,-24931l40366 45377c15077,-5773 30894,-10052 47270,-12646l12275 -59502c16621,0 33241,0 49862,0l12274 59498z"/><path class="fil3" d="M435716 321286c116073,0 210170,94097 210170,210169 0,116074 -94097,210170 -210170,210170 -116073,0 -210169,-94096 -210169,-210170 0,-116072 94096,-210169 210169,-210169z"/></g><path class="fil2 str0" d="M472921 298087c16380,2592 32199,6867 47276,12644l40362 -45371c14395,8311 28788,16622 43182,24931l-19133 57705c12676,10302 24267,21890 34567,34570l57707 -19135c8310,14395 16621,28789 24931,43182l-45384 40374c5773,15075 10055,30886 12646,47263l59509 12275c0,16621 -1,33242 0,49862l-59499 12275c-2593,16380 -6868,32199 -12644,47275l45372 40362c-8310,14395 -16622,28788 -24931,43183l-57705 -19134c-10303,12676 -21891,24266 -34570,34567l19134 57707c-14394,8310 -28789,16621 -43182,24931l-40374 -45385c-15074,5773 -30886,10057 -47262,12647l-12276 59510c-16621,0 -33242,-1 -49862,0l-12275 -59500c-16379,-2592 -32198,-6868 -47275,-12643l-40362 45371c-14394,-8310 -28788,-16622 -43182,-24931l19133 -57705c-12676,-10303 -24267,-21890 -34566,-34570l-57708 19135c-8310,-14395 -16621,-28789 -24931,-43183l45384 -40372c-5772,-15075 -10055,-30886 -12646,-47263l-59509 -12277c0,-16620 1,-33242 0,-49862l59499 -12274c2593,-16381 6868,-32201 12644,-47276l-45372 -40362c8310,-14394 16622,-28787 24931,-43182l57704 19133c10304,-12678 21891,-24268 34570,-34569l-19133 -57704c14394,-8310 28789,-16620 43183,-24931l40366 45377c15077,-5773 30894,-10052 47270,-12646l12275 -59502c16621,0 33241,0 49862,0l12274 59498z"/><path class="fil5" d="M435716 321286c116073,0 210170,94097 210170,210169 0,116074 -94097,210170 -210170,210170 -116073,0 -210169,-94096 -210169,-210170 0,-116072 94096,-210169 210169,-210169z"/><path class="fil2 str0" d="M378759 394912l42049 100805m50859 21351l76736 -30712"/><path class="fil2 str0" d="M435716 492741c21382,0 38716,17333 38716,38715 0,21382 -17334,38716 -38716,38716 -21382,0 -38715,-17334 -38715,-38716 0,-21382 17333,-38715 38715,-38715z"/><path class="fil3" d="M435716 507045c13482,0 24411,10929 24411,24411 0,13482 -10929,24412 -24411,24412 -13482,0 -24411,-10930 -24411,-24412 0,-13482 10929,-24411 24411,-24411z"/><line class="fil2 str2" x1="434231" x2="434231" y1="335421" y2="354831"/><line class="fil2 str2" x1="367272" x2="373912" y1="347751" y2="365991"/><line class="fil2 str2" x1="308570" x2="321046" y1="382239" y2="397108"/><line class="fil2 str2" x1="265202" x2="282012" y1="434725" y2="444430"/><line class="fil2 str2" x1="242401" x2="261516" y1="498877" y2="502248"/><line class="fil2 str2" x1="242917" x2="262032" y1="566959" y2="563589"/><line class="fil2 str2" x1="266687" x2="283497" y1="630760" y2="621055"/><line class="fil2 str2" x1="310844" x2="323320" y1="682583" y2="667713"/><line class="fil2 str2" x1="370063" x2="376702" y1="716177" y2="697938"/><line class="fil2 str2" x1="437201" x2="437201" y1="727492" y2="708082"/><line class="fil2 str2" x1="504160" x2="497520" y1="715161" y2="696922"/><line class="fil2 str2" x1="562862" x2="550386" y1="680673" y2="665805"/><line class="fil2 str2" x1="606230" x2="589420" y1="628188" y2="618483"/><line class="fil2 str2" x1="629031" x2="609916" y1="564036" y2="560665"/><line class="fil2 str2" x1="628515" x2="609400" y1="495953" y2="499323"/><line class="fil2 str2" x1="604745" x2="587935" y1="432152" y2="441857"/><line class="fil2 str2" x1="560588" x2="548112" y1="380330" y2="395200"/><line class="fil2 str2" x1="501369" x2="494730" y1="346735" y2="364975"/><line class="fil2 str0" x1="435716" x2="435716" y1="531456" y2="678502"/><path class="fil2 str0" d="M392150 663003c-4250,-970 -8423,-2143 -12508,-3507m-33859 -16991c-34761,-24161 -57517,-64387 -57517,-109927 0,-48813 26146,-91521 65196,-114882"/><path class="fil2 str0" d="M5167 19100l8687 8687m23679 -8687l-8688 8688m-14990 14990l-8688 8688m23678 -8688l8688 8688"/><path class="fil2 str0" d="M496578 83702c5796,-6357 15649,-6811 22005,-1014 6357,5797 6811,15649 1014,22005 -5796,6357 -15648,6812 -22005,1014 -6358,-5796 -6812,-15648 -1014,-22005z"/><path class="fil2 str0" d="M26167 820129l8687 8687m23679 -8687l-8688 8688m-14990 14990l-8688 8688m23678 -8688l8688 8688"/><path class="fil2 str0" d="M788106 820388c5797,-6357 15649,-6811 22006,-1014 6356,5797 6810,15649 1013,22006 -5796,6357 -15648,6811 -22005,1014 -6358,-5797 -6811,-15649 -1014,-22006z"/><polyline class="fil2 str0" points="320577,83402 320577,227141 122808,227141 122808,83402 "/><polygon class="fil5" points="135318,96387 308066,96387 308066,211841 135318,211841 "/><path class="fil2 str0" d="M122808 83402l197769 0 0 -32610c0,-11135 -9109,-20245 -20245,-20245l-157279 0c-11135,0 -20245,9110 -20245,20245l0 32610z"/><path class="fil6" d="M134864 71683l173657 0 0 -18150c0,-6198 -5070,-11268 -11268,-11268l-151121 0c-6198,0 -11268,5070 -11268,11268l0 18150z"/><g><line class="fil2 str0" x1="163090" x2="163090" y1="7308" y2="53552"/><line class="fil2 str0" x1="202158" x2="202158" y1="7308" y2="53552"/><line class="fil2 str0" x1="241226" x2="241226" y1="7308" y2="53552"/><line class="fil2 str0" x1="280294" x2="280294" y1="7308" y2="53552"/></g><g><polygon class="fil3" points="143564,103162 161717,103162 161717,121315 143564,121315 "/><polygon class="fil3" points="178091,103162 196243,103162 196243,121315 178091,121315 "/><polygon class="fil3" points="212616,103162 230768,103162 230768,121315 212616,121315 "/><polygon class="fil3" points="247141,103162 265293,103162 265293,121315 247141,121315 "/><polygon class="fil3" points="281667,103162 299819,103162 299819,121315 281667,121315 "/></g><g><polygon class="fil3" points="143564,129459 161717,129459 161717,147611 143564,147611 "/><polygon class="fil3" points="178091,129459 196243,129459 196243,147611 178091,147611 "/><polygon class="fil3" points="212616,129459 230768,129459 230768,147611 212616,147611 "/><polygon class="fil3" points="247141,129459 265293,129459 265293,147611 247141,147611 "/><polygon class="fil3" points="281667,129459 299819,129459 299819,147611 281667,147611 "/></g><g><polygon class="fil3" points="143564,155755 161717,155755 161717,173907 143564,173907 "/><polygon class="fil3" points="178091,155755 196243,155755 196243,173907 178091,173907 "/><polygon class="fil3" points="212616,155755 230768,155755 230768,173907 212616,173907 "/><polygon class="fil3" points="247141,155755 265293,155755 265293,173907 247141,173907 "/><polygon class="fil3" points="281667,155755 299819,155755 299819,173907 281667,173907 "/></g><g><polygon class="fil3" points="143564,182051 161717,182051 161717,200203 143564,200203 "/><polygon class="fil3" points="178091,182051 196243,182051 196243,200203 178091,200203 "/><polygon class="fil3" points="212616,182051 230768,182051 230768,200203 212616,200203 "/><polygon class="fil3" points="247141,182051 265293,182051 265293,200203 247141,200203 "/><polygon class="fil3" points="281667,182051 299819,182051 299819,200203 281667,200203 "/></g><path class="fil2 str0" d="M29348 202482c5797,-6356 15649,-6811 22006,-1014 6356,5797 6810,15649 1013,22006 -5796,6357 -15648,6811 -22005,1014 -6358,-5797 -6811,-15649 -1014,-22006z"/><path class="fil2 str0" d="M15899 351415l8687 8687m23679 -8687l-8688 8689m-14990 14989l-8688 8689m23678 -8689l8688 8689"/></g><path class="fil2 str0" d="M371580 107003l8687 8687m23679 -8687l-8688 8688m-14990 14990l-8688 8688m23678 -8688l8688 8688"/></g></svg>