<?xml version="1.0" ?><!DOCTYPE svg  PUBLIC '-//W3C//DTD SVG 1.1//EN'  'http://www.w3.org/Graphics/SVG/1.1/DTD/svg11.dtd'><svg height="256px" style="shape-rendering:geometricPrecision; text-rendering:geometricPrecision; image-rendering:optimizeQuality; fill-rule:evenodd; clip-rule:evenodd" version="1.1" viewBox="0 0 40852 41247" width="254px" xml:space="preserve" xmlns="http://www.w3.org/2000/svg" xmlns:xlink="http://www.w3.org/1999/xlink"><defs><style type="text/css">
   <![CDATA[
    .str1 {stroke:#105286;stroke-width:644.211}
    .str0 {stroke:#E6E6E6;stroke-width:34.7877}
    .fil5 {fill:none}
    .fil10 {fill:#105286}
    .fil8 {fill:#53B4ED}
    .fil9 {fill:#67D46F}
    .fil4 {fill:#B3B3B3}
    .fil1 {fill:#C2C2C2}
    .fil2 {fill:#E1E1E1}
    .fil0 {fill:#E6E6E6}
    .fil6 {fill:#FF576B}
    .fil7 {fill:#FFD027}
    .fil3 {fill:white}
   ]]>
  </style></defs><g id="Layer_x0020_1"><g id="_475397616"><path class="fil0 str0" d="M5705 37655l2067 0c2365,0 2365,-3575 0,-3575l-5600 0c-2365,0 -2365,-3575 0,-3575l5486 0c2365,0 2365,-3575 0,-3575l-1970 0c-2365,0 -2365,-3575 0,-3575l9815 0 3492 0 5323 0c2364,0 2364,3575 0,3575l-986 0c-2365,0 -2364,3575 0,3575l2687 0c2365,0 2365,3575 0,3575l-2801 0c-2364,0 -2364,3575 0,3575l861 0c2365,0 2365,3575 0,3575l-5084 0 -3492 0 -9798 0c-2365,0 -2365,-3575 0,-3575z"/><path class="fil1" d="M16401 23355l18410 0c2365,0 2364,3575 0,3575l-1836 0c-2498,0 -2719,3575 274,3575l5162 0c2365,0 2365,3575 0,3575l-7437 0c-2364,0 -2364,3575 0,3575l1800 0c2365,0 2364,3575 0,3575l-16373 0 -986 0c-2365,0 -2365,-3575 0,-3575l986 0c2380,0 2480,-3575 0,-3575l-4210 0c-2365,0 -2365,-3575 0,-3575l3051 0c2619,80 2928,-3575 0,-3575l-1864 0c-2365,0 -2365,-3575 0,-3575l3023 0 0 0zm20715 14300l-10 0c-984,0 -1788,804 -1788,1787l0 0c0,984 804,1788 1788,1788l10 0c983,0 1788,-804 1788,-1788l0 0c0,-983 -805,-1787 -1788,-1787z"/></g><path class="fil2" d="M10160 15181l22243 0c1106,0 2010,905 2010,2010l0 15413c0,1105 -904,2010 -2010,2010l-22243 0c-1106,0 -2010,-905 -2010,-2010l0 -15413c0,-1105 904,-2010 2010,-2010z"/><path class="fil3" d="M10240 17120l22083 0c50,0 92,41 92,92l0 15371c0,51 -42,93 -92,93l-22083 0c-50,0 -92,-42 -92,-93l0 -15371c0,-51 42,-92 92,-92z"/><g id="_475392144"><path class="fil2" d="M7897 39770l26769 0c1091,0 1983,-892 1983,-1983l0 -951c0,-186 -152,-338 -338,-338l-30059 0c-186,0 -338,152 -338,338l0 951c0,1091 892,1983 1983,1983z"/><path class="fil4" d="M7896 39770l26770 0c1091,0 1983,-893 1983,-1983l0 -951c0,-50 -11,-98 -31,-141 -166,926 -980,1634 -1952,1634l-26770 0c-971,0 -1785,-708 -1951,-1634 -20,43 -31,91 -31,141l0 951c0,1090 892,1983 1982,1983z"/><polygon class="fil4" points="18400,36498 24163,36498 24163,37892 18400,37892 "/></g><path class="fil5 str1" d="M7897 39770l26769 0c1091,0 1983,-892 1983,-1983l0 -951c0,-186 -152,-338 -338,-338l-30059 0c-186,0 -338,152 -338,338l0 951c0,1091 892,1983 1983,1983z"/><g id="_475392120"><polygon class="fil3" points="13234,34614 14744,34614 14744,36498 13234,36498 "/><polygon class="fil3" points="27819,34614 29329,34614 29329,36498 27819,36498 "/></g><polygon class="fil5 str1" points="13234,34614 14744,34614 14744,36498 13234,36498 "/><polygon class="fil5 str1" points="27819,34614 29329,34614 29329,36498 27819,36498 "/><path class="fil5 str1" d="M34413 25525l0 7079c0,1105 -904,2010 -2010,2010l-22243 0c-1106,0 -2010,-905 -2010,-2010l0 -15413c0,-1105 904,-2010 2010,-2010l16487 0"/><path class="fil6" d="M33587 24888l0 -14141c2716,2951 5996,2802 5996,2802 936,8337 -3380,10447 -5996,11339z"/><path class="fil7" d="M33587 24888l0 -14141c-2717,2951 -5997,2802 -5997,2802 -936,8337 3380,10447 5997,11339z"/><path class="fil5 str1" d="M33587 25829c-2965,-1010 -7856,-3402 -6796,-12849 0,0 3717,169 6796,-3174 3078,3343 6795,3174 6795,3174 1060,9447 -3831,11839 -6795,12849z"/><path class="fil5 str1" d="M33587 23600c-2140,-730 -5670,-2455 -4905,-9274 0,0 2683,122 4905,-2291 2221,2413 4904,2291 4904,2291 765,6819 -2765,8544 -4904,9274z"/><g id="_475391232"><path class="fil5 str1" d="M8546 10479c-705,-576 -1155,-1452 -1155,-2433 0,-1734 1406,-3140 3141,-3140 354,0 694,58 1012,166 336,-2678 2621,-4750 5390,-4750 2466,0 4548,1644 5211,3895 165,-24 334,-36 506,-36 1935,0 3503,1568 3503,3503 0,1934 -1568,3503 -3503,3503 -3413,0 -6968,0 -10257,0"/><path class="fil2" d="M16934 1023c-2381,0 -4398,1775 -4694,4136l-107 854 -815 -277c-253,-86 -518,-129 -786,-129 -1348,0 -2439,1092 -2439,2439 0,1348 1091,2439 2439,2439 4040,0 8079,0 12119,0 1548,0 2802,-1254 2802,-2801 0,-1548 -1254,-2802 -2802,-2802 -135,0 -271,10 -405,29l-602 87 -172 -583c-591,-2008 -2440,-3392 -4538,-3392z"/></g><line class="fil5 str1" x1="14688" x2="14688" y1="8637" y2="22032"/><path class="fil5 str1" d="M14688 22032c777,0 1407,630 1407,1407 0,778 -630,1408 -1407,1408 -777,0 -1407,-630 -1407,-1408 0,-777 630,-1407 1407,-1407z"/><line class="fil5 str1" x1="18266" x2="18266" y1="8637" y2="26407"/><path class="fil5 str1" d="M18266 26407c1031,0 1867,835 1867,1867 0,1031 -836,1867 -1867,1867 -1031,0 -1867,-836 -1867,-1867 0,-1032 836,-1867 1867,-1867z"/><line class="fil5 str1" x1="22041" x2="22041" y1="8637" y2="22032"/><path class="fil5 str1" d="M22041 22032c777,0 1407,630 1407,1407 0,778 -630,1408 -1407,1408 -778,0 -1408,-630 -1408,-1408 0,-777 630,-1407 1408,-1407z"/><path class="fil8" d="M14688 22850c325,0 589,264 589,589 0,326 -264,590 -589,590 -326,0 -590,-264 -590,-590 0,-325 264,-589 590,-589z"/><path class="fil6" d="M22041 22850c325,0 589,264 589,589 0,326 -264,590 -589,590 -326,0 -590,-264 -590,-590 0,-325 264,-589 590,-589z"/><path class="fil7" d="M18266 27417c473,0 857,384 857,857 0,473 -384,856 -857,856 -473,0 -856,-383 -856,-856 0,-473 383,-857 856,-857z"/><path class="fil5 str1" d="M36453 1725l383 382m1044 -382l-383 383m-661 660l-383 383m1044 -383l383 383"/><path class="fil5 str1" d="M27969 26894l383 383m1044 -383l-383 383m-661 661l-383 383m1044 -383l383 383"/><path class="fil5 str1" d="M6072 1851l383 382m1044 -382l-383 382m-661 661l-383 383m1044 -383l383 383"/><path class="fil5 str1" d="M2993 5907c440,0 796,357 796,796 0,440 -356,796 -796,796 -439,0 -796,-356 -796,-796 0,-439 357,-796 796,-796z"/><path class="fil5 str1" d="M38849 6892c601,0 1087,487 1087,1087 0,601 -486,1087 -1087,1087 -600,0 -1087,-486 -1087,-1087 0,-600 487,-1087 1087,-1087z"/><path class="fil5 str1" d="M38961 27032c334,0 605,271 605,605 0,335 -271,606 -605,606 -335,0 -606,-271 -606,-606 0,-334 271,-605 606,-605z"/><g id="_475399584"><path class="fil5 str1" d="M1198 11065l4438 0c482,0 875,394 875,876l0 1459c0,481 -393,875 -875,875l-4438 0c-482,0 -876,-394 -876,-875l0 -1459c0,-482 394,-876 876,-876z"/><path class="fil9" d="M1544 11758l3745 0c274,0 498,224 498,498l0 829c0,273 -224,497 -498,497l-3745 0c-273,0 -497,-224 -497,-497l0 -829c0,-274 224,-498 497,-498z"/><path class="fil10" d="M4137 12346c178,0 323,145 323,324 0,179 -145,324 -323,324 -179,0 -324,-145 -324,-324 0,-179 145,-324 324,-324z"/><g><path class="fil10" d="M5131 12346c178,0 323,145 323,324 0,179 -145,324 -323,324 -179,0 -324,-145 -324,-324 0,-179 145,-324 324,-324z"/><path class="fil10" d="M3142 12346c179,0 324,145 324,324 0,179 -145,324 -324,324 -178,0 -323,-145 -323,-324 0,-179 145,-324 323,-324z"/></g></g><g id="_475404504"><path class="fil5 str1" d="M1198 14275l4438 0c482,0 875,394 875,876l0 1459c0,481 -393,875 -875,875l-4438 0c-482,0 -876,-394 -876,-875l0 -1459c0,-482 394,-876 876,-876z"/><path class="fil9" d="M1544 14968l3745 0c274,0 498,224 498,498l0 829c0,274 -224,497 -498,497l-3745 0c-273,0 -497,-223 -497,-497l0 -829c0,-274 224,-498 497,-498z"/><path class="fil10" d="M4137 15557c178,0 323,145 323,323 0,179 -145,324 -323,324 -179,0 -324,-145 -324,-324 0,-178 145,-323 324,-323z"/><g><path class="fil10" d="M5131 15557c178,0 323,145 323,323 0,179 -145,324 -323,324 -179,0 -324,-145 -324,-324 0,-178 145,-323 324,-323z"/><path class="fil10" d="M3142 15557c179,0 324,145 324,323 0,179 -145,324 -324,324 -178,0 -323,-145 -323,-324 0,-178 145,-323 323,-323z"/></g></g><g id="_475388136"><path class="fil5 str1" d="M1198 17485l4438 0c482,0 875,394 875,876l0 1459c0,482 -393,876 -875,876l-4438 0c-482,0 -876,-394 -876,-876l0 -1459c0,-482 394,-876 876,-876z"/><path class="fil9" d="M1544 18179l3745 0c274,0 498,223 498,497l0 829c0,274 -224,498 -498,498l-3745 0c-273,0 -497,-224 -497,-498l0 -829c0,-274 224,-497 497,-497z"/><path class="fil10" d="M4137 18767c178,0 323,145 323,324 0,178 -145,323 -323,323 -179,0 -324,-145 -324,-323 0,-179 145,-324 324,-324z"/><g><path class="fil10" d="M5131 18767c178,0 323,145 323,324 0,178 -145,323 -323,323 -179,0 -324,-145 -324,-323 0,-179 145,-324 324,-324z"/><path class="fil10" d="M3142 18767c179,0 324,145 324,324 0,178 -145,323 -324,323 -178,0 -323,-145 -323,-323 0,-179 145,-324 323,-324z"/></g></g><path class="fil5 str1" d="M33460 4815l1853 0c244,0 443,199 443,443l0 2055c0,244 -199,443 -443,443l-3465 0c-244,0 -443,-199 -443,-443 0,-1020 0,-2040 0,-3060 0,-122 100,-221 221,-221l1612 0c122,0 222,99 222,221l0 562z"/><path class="fil5 str1" d="M11912 7294c865,499 1162,1606 662,2471 -499,866 -1606,1162 -2471,662 -865,-499 -1162,-1606 -662,-2471 499,-865 1606,-1162 2471,-662z"/><line class="fil5 str1" x1="10104" x2="8633" y1="10425" y2="12973"/><path class="fil8" d="M11541 7937c510,295 685,947 390,1457 -294,510 -947,685 -1457,390 -510,-294 -685,-947 -390,-1457 294,-510 947,-684 1457,-390z"/><path class="fil5 str1" d="M26117 2166c300,0 544,243 544,543 0,301 -244,544 -544,544 -300,0 -544,-243 -544,-544 0,-300 244,-543 544,-543z"/><line class="fil5 str1" x1="3417" x2="3417" y1="20696" y2="22430"/><line class="fil5 str1" x1="516" x2="6317" y1="22430" y2="22430"/></g></svg>