<?xml version="1.0" ?><!DOCTYPE svg  PUBLIC '-//W3C//DTD SVG 1.1//EN'  'http://www.w3.org/Graphics/SVG/1.1/DTD/svg11.dtd'><svg height="255px" style="shape-rendering:geometricPrecision; text-rendering:geometricPrecision; image-rendering:optimizeQuality; fill-rule:evenodd; clip-rule:evenodd" version="1.1" viewBox="0 0 885533 905622" width="249px" xml:space="preserve" xmlns="http://www.w3.org/2000/svg" xmlns:xlink="http://www.w3.org/1999/xlink"><defs><style type="text/css">
   <![CDATA[
    .str0 {stroke:#105286;stroke-width:14217.7}
    .str1 {stroke:white;stroke-width:14217.7}
    .fil3 {fill:none}
    .fil5 {fill:#3FE4C0}
    .fil1 {fill:#C2C2C2}
    .fil0 {fill:#E6E6E6}
    .fil6 {fill:#FF576B}
    .fil4 {fill:#FFD027}
    .fil2 {fill:white}
   ]]>
  </style></defs><g id="Layer_x0020_1"><g id="_475384440"><path class="fil0" d="M117120 826721l45629 0c52189,0 52189,-78901 0,-78901l-123606 0c-52190,0 -52190,-78898 0,-78898l121093 0c52189,0 52193,-78901 0,-78901l-43488 0c-52191,0 -52191,-78899 0,-78899l216623 0 77059 0 117470 0c52190,0 52190,78899 0,78899l-21745 0c-52191,0 -52187,78901 0,78901l59291 0c52191,0 52191,78898 0,78898l-61803 0c-52190,0 -52190,78901 0,78901l18997 0c52191,0 52191,78899 0,78899l-112210 0 -77059 0 -216251 0c-52192,0 -52192,-78899 0,-78899z"/><path class="fil1" d="M353191 511120l406297 0c52189,0 52183,78901 0,78901l-40516 0c-55143,0 -60011,78899 6038,78899l113939 0c52189,0 52183,78902 0,78902l-164135 0c-52189,0 -52189,78899 0,78899l39717 0c52188,0 52186,78901 0,78901l-361340 0 -21771 -2c-52186,0 -52186,-78899 0,-78899l21771 0c52529,0 54720,-78901 0,-78901l-92925 0c-52186,0 -52188,-78898 0,-78898l67342 0c57788,1779 64627,-78901 0,-78901l-41142 0c-52190,0 -52190,-78899 0,-78899l66725 0 0 -2zm457172 315601l-233 0c-21698,0 -39449,17750 -39449,39448l0 4c0,21699 17751,39447 39449,39447l233 0c21698,0 39448,-17748 39448,-39447l0 -4c0,-21698 -17750,-39448 -39448,-39448z"/></g><polygon class="fil2" points="30234,116024 847856,116024 847856,633196 30234,633196 "/><polyline class="fil3 str0" points="353738,862458 353738,633196 524352,633196 524352,862458 "/><polygon class="fil3 str0" points="30234,116024 847856,116024 847856,633196 30234,633196 "/><polygon class="fil4" points="88478,172870 789612,172870 789612,576351 88478,576351 "/><path class="fil3 str0" d="M128926 52933l-25752 -419c-7911,-129 -14765,2614 -20405,8162 -5640,5549 -8493,12358 -8493,20270l0 35078"/><path class="fil3 str0" d="M158310 23549l54968 0c16161,0 29383,13222 29383,29384l0 29385 -113735 0 0 -29385c0,-16162 13222,-29384 29384,-29384z"/><path class="fil3 str0" d="M749163 52933l25752 -419c7912,-129 14765,2614 20406,8162 5640,5549 8492,12358 8492,20270l0 35078"/><path class="fil3 str0" d="M719780 23549l-54969 0c-16161,0 -29383,13222 -29383,29384l0 29385 113735 0 0 -29385c0,-16162 -13222,-29384 -29383,-29384z"/><line class="fil3 str0" x1="439045" x2="439045" y1="65877" y2="116024"/><path class="fil3 str0" d="M466529 7109l-54968 0c-16162,0 -29384,13223 -29384,29385l0 29384 113735 0 0 -29384c0,-16162 -13222,-29385 -29383,-29385z"/><path class="fil3 str0" d="M678991 172870l106253 0 0 116322m0 170838l0 116321 -106253 0m-479891 0l-106254 0 0 -116321m0 -170838l0 -116322 106254 0"/><line class="fil3 str0" x1="176537" x2="353738" y1="633196" y2="767582"/><line class="fil3 str0" x1="701552" x2="524352" y1="633196" y2="767582"/><g id="_475403424"><line class="fil3 str1" x1="478202" x2="572611" y1="297033" y2="297033"/><line class="fil3 str1" x1="478202" x2="712796" y1="348751" y2="348751"/><line class="fil3 str1" x1="478202" x2="712796" y1="400470" y2="400470"/><line class="fil3 str1" x1="478202" x2="595499" y1="452188" y2="452188"/></g><polygon class="fil2" points="172510,256154 387554,256154 387554,471198 172510,471198 "/><polyline class="fil3 str0" points="210724,428534 314653,337562 387554,400987 "/><polyline class="fil3 str0" points="172510,389879 216977,353188 262688,383048 "/><polygon class="fil2" points="379456,657789 498634,657789 498634,837866 379456,837866 "/><path class="fil5" d="M717952 41312l-51313 0c-4062,0 -7386,3323 -7386,7386l0 15856 66085 0 0 -15856c0,-4063 -3323,-7386 -7386,-7386z"/><path class="fil5" d="M211450 41312l-51313 0c-4062,0 -7386,3323 -7386,7386l0 15856 66086 0 0 -15856c0,-4063 -3324,-7386 -7387,-7386z"/><path class="fil6" d="M464701 24873l-51313 0c-4062,0 -7386,3323 -7386,7386l0 15856 66086 0 0 -15856c0,-4063 -3324,-7386 -7387,-7386z"/><g id="_475392024"><path class="fil3 str0" d="M840949 10855l8451 8452m23037 -8452l-8452 8453m-14584 14583l-8452 8453m23036 -8453l8452 8453"/><path class="fil3 str0" d="M5653 10855l8452 8452m23037 -8452l-8453 8453m-14583 14583l-8453 8453m23036 -8453l8453 8453"/></g><g id="_475393896"><path class="fil3 str0" d="M828549 770387l8451 8452m23037 -8452l-8452 8453m-14584 14583l-8452 8453m23036 -8453l8452 8453"/><path class="fil3 str0" d="M18052 851486l8452 8451m23037 -8451l-8453 8452m-14583 14584l-8453 8452m23036 -8452l8453 8452"/></g><path class="fil3 str0" d="M310170 23941c4719,-5175 12741,-5545 17916,-826 5176,4721 5546,12742 827,17918 -4721,5176 -12742,5544 -17918,825 -5176,-4719 -5545,-12742 -825,-17917z"/><path class="fil3 str0" d="M856372 663929c4719,-5175 12741,-5545 17916,-825 5176,4720 5546,12741 826,17917 -4720,5176 -12741,5545 -17917,825 -5176,-4719 -5545,-12741 -825,-17917z"/><path class="fil3 str0" d="M56177 786554c4720,-5175 12742,-5545 17917,-825 5176,4720 5545,12741 826,17917 -4720,5176 -12742,5545 -17917,825 -5176,-4719 -5545,-12741 -826,-17917z"/></g></svg>